<?xml version="1.0" encoding="UTF-8"?>
<svg width="800" height="400" viewBox="0 0 800 400" xmlns="http://www.w3.org/2000/svg">
    <!-- Background -->
    <defs>
        <linearGradient id="carGradient" x1="0%" y1="0%" x2="100%" y2="0%">
            <stop offset="0%" style="stop-color:#1a1a1a;stop-opacity:1" />
            <stop offset="100%" style="stop-color:#333333;stop-opacity:1" />
        </linearGradient>
        <filter id="shadow" x="-20%" y="-20%" width="140%" height="140%">
            <feGaussianBlur in="SourceAlpha" stdDeviation="3" />
            <feOffset dx="2" dy="2" result="offsetblur" />
            <feComponentTransfer>
                <feFuncA type="linear" slope="0.2" />
            </feComponentTransfer>
            <feMerge>
                <feMergeNode />
                <feMergeNode in="SourceGraphic" />
            </feMerge>
        </filter>
    </defs>

    <!-- Car Body -->
    <g transform="translate(200, 200)">
        <!-- Main Body -->
        <path d="M-120,-40 C-120,-60 120,-60 120,-40 L120,40 C120,60 -120,60 -120,40 Z" 
              fill="url(#carGradient)" filter="url(#shadow)" />
        
        <!-- Windows -->
        <path d="M-100,-30 C-100,-50 100,-50 100,-30 L100,30 C100,50 -100,50 -100,30 Z" 
              fill="#87CEEB" fill-opacity="0.3" />
        
        <!-- Wheels -->
        <circle cx="-80" cy="40" r="15" fill="#333" />
        <circle cx="80" cy="40" r="15" fill="#333" />
        <circle cx="-80" cy="40" r="10" fill="#222" />
        <circle cx="80" cy="40" r="10" fill="#222" />
        
        <!-- Headlights -->
        <circle cx="-110" cy="-20" r="8" fill="#FFD700" />
        <circle cx="110" cy="-20" r="8" fill="#FFD700" />
        
        <!-- Grill -->
        <rect x="-30" y="-35" width="60" height="8" fill="#222" />
        
        <!-- Toyota Logo -->
        <circle cx="0" cy="-25" r="12" fill="#EB0A1E" />
        <path d="M-8,-25 L8,-25 M0,-32 L0,-18" stroke="#FFF" stroke-width="2" />
        
        <!-- Side Windows -->
        <rect x="-90" y="-20" width="30" height="30" fill="#87CEEB" fill-opacity="0.3" />
        <rect x="60" y="-20" width="30" height="30" fill="#87CEEB" fill-opacity="0.3" />
    </g>

    <!-- Floating Elements -->
    <g class="floating-elements">
        <circle cx="100" cy="100" r="5" fill="#FFD700" class="float-element element-1" />
        <circle cx="700" cy="150" r="8" fill="#FFD700" class="float-element element-2" />
        <circle cx="400" cy="50" r="6" fill="#FFD700" class="float-element element-3" />
    </g>
</svg> 