<?xml version="1.0" encoding="UTF-8"?>
<svg width="800" height="600" viewBox="0 0 800 600" xmlns="http://www.w3.org/2000/svg">
    <!-- Background -->
    <defs>
        <linearGradient id="bgGradient" x1="0%" y1="0%" x2="100%" y2="100%">
            <stop offset="0%" style="stop-color:#f8f9fa;stop-opacity:1" />
            <stop offset="100%" style="stop-color:#e9ecef;stop-opacity:1" />
        </linearGradient>
        <filter id="shadow" x="-20%" y="-20%" width="140%" height="140%">
            <feGaussianBlur in="SourceAlpha" stdDeviation="10" />
            <feOffset dx="0" dy="5" result="offsetblur" />
            <feComponentTransfer>
                <feFuncA type="linear" slope="0.2" />
            </feComponentTransfer>
            <feMerge>
                <feMergeNode />
                <feMergeNode in="SourceGraphic" />
            </feMerge>
        </filter>
    </defs>

    <!-- Main Container -->
    <rect x="50" y="50" width="700" height="500" rx="20" fill="url(#bgGradient)" filter="url(#shadow)" />

    <!-- Service Station -->
    <g transform="translate(200, 150)">
        <rect x="0" y="0" width="400" height="300" rx="15" fill="white" />
        
        <!-- Car -->
        <g transform="translate(100, 100)">
            <rect x="0" y="0" width="200" height="80" rx="5" fill="#007bff" />
            <circle cx="50" cy="80" r="20" fill="#2d3436" />
            <circle cx="150" cy="80" r="20" fill="#2d3436" />
            <rect x="40" y="20" width="120" height="40" rx="3" fill="#0056b3" />
        </g>
        
        <!-- Tools -->
        <g transform="translate(50, 200)">
            <rect x="0" y="0" width="30" height="30" rx="5" fill="#28a745" />
            <rect x="40" y="0" width="30" height="30" rx="5" fill="#dc3545" />
            <rect x="80" y="0" width="30" height="30" rx="5" fill="#ffc107" />
        </g>
        
        <!-- Check List -->
        <g transform="translate(300, 200)">
            <rect x="0" y="0" width="80" height="80" rx="10" fill="#28a745" opacity="0.1" />
            <path d="M20,40 L35,55 L60,30" stroke="#28a745" stroke-width="5" fill="none" />
        </g>
    </g>

    <!-- Maintenance Icons -->
    <g transform="translate(100, 400)">
        <!-- Wrench -->
        <path d="M0,0 L40,40 M20,20 L60,60" stroke="#007bff" stroke-width="5" />
        <circle cx="20" cy="20" r="10" fill="#007bff" />
        
        <!-- Oil Can -->
        <path d="M100,0 L120,20 L140,0 L120,-20 Z" fill="#28a745" />
        <rect x="110" y="0" width="20" height="40" fill="#28a745" />
        
        <!-- Tire -->
        <circle cx="200" cy="20" r="20" fill="#2d3436" />
        <circle cx="200" cy="20" r="15" fill="white" />
    </g>

    <!-- Floating Elements -->
    <g transform="translate(400, 300)">
        <!-- Shield -->
        <path d="M-50,0 L-30,20 L-30,40 L-70,40 L-70,20 Z" fill="#dc3545" opacity="0.1" />
        
        <!-- Checkmark -->
        <path d="M50,0 L70,20 L90,-20" stroke="#28a745" stroke-width="4" fill="none" />
        
        <!-- Clock -->
        <circle cx="0" cy="0" r="30" fill="#007bff" opacity="0.1" />
        <path d="M0,-20 L0,0 M0,0 L15,0" stroke="#007bff" stroke-width="3" />
    </g>

    <!-- Decorative Elements -->
    <g transform="translate(100, 200)">
        <circle cx="0" cy="0" r="20" fill="#007bff" opacity="0.1" />
        <circle cx="40" cy="20" r="15" fill="#28a745" opacity="0.1" />
        <circle cx="80" cy="0" r="25" fill="#dc3545" opacity="0.1" />
    </g>
</svg> 