<?xml version="1.0" encoding="UTF-8"?>
<svg width="800" height="600" viewBox="0 0 800 600" xmlns="http://www.w3.org/2000/svg">
    <!-- Background -->
    <defs>
        <linearGradient id="bgGradient" x1="0%" y1="0%" x2="100%" y2="100%">
            <stop offset="0%" style="stop-color:#f8f9fa;stop-opacity:1" />
            <stop offset="100%" style="stop-color:#e9ecef;stop-opacity:1" />
        </linearGradient>
        <filter id="shadow" x="-20%" y="-20%" width="140%" height="140%">
            <feGaussianBlur in="SourceAlpha" stdDeviation="10" />
            <feOffset dx="0" dy="5" result="offsetblur" />
            <feComponentTransfer>
                <feFuncA type="linear" slope="0.2" />
            </feComponentTransfer>
            <feMerge>
                <feMergeNode />
                <feMergeNode in="SourceGraphic" />
            </feMerge>
        </filter>
    </defs>

    <!-- Main Container -->
    <rect x="50" y="50" width="700" height="500" rx="20" fill="url(#bgGradient)" filter="url(#shadow)" />

    <!-- Map Background -->
    <g transform="translate(200, 150)">
        <rect x="0" y="0" width="400" height="300" rx="15" fill="white" />
        <path d="M50,50 L350,50 L350,250 L50,250 Z" fill="#e9ecef" />
        
        <!-- Map Routes -->
        <path d="M100,100 L300,100" stroke="#007bff" stroke-width="4" stroke-dasharray="10,5" />
        <path d="M200,50 L200,250" stroke="#28a745" stroke-width="4" stroke-dasharray="10,5" />
        
        <!-- Location Pins -->
        <g transform="translate(100, 100)">
            <circle cx="0" cy="0" r="15" fill="#007bff" />
            <path d="M-10,-10 L10,10 M10,-10 L-10,10" stroke="white" stroke-width="3" />
        </g>
        
        <g transform="translate(300, 100)">
            <circle cx="0" cy="0" r="15" fill="#28a745" />
            <path d="M-10,-10 L10,10 M10,-10 L-10,10" stroke="white" stroke-width="3" />
        </g>
        
        <g transform="translate(200, 50)">
            <circle cx="0" cy="0" r="15" fill="#dc3545" />
            <path d="M-10,-10 L10,10 M10,-10 L-10,10" stroke="white" stroke-width="3" />
        </g>
        
        <g transform="translate(200, 250)">
            <circle cx="0" cy="0" r="15" fill="#ffc107" />
            <path d="M-10,-10 L10,10 M10,-10 L-10,10" stroke="white" stroke-width="3" />
        </g>
    </g>

    <!-- Vehicle Elements -->
    <g transform="translate(100, 400)">
        <!-- Car -->
        <rect x="0" y="0" width="100" height="40" rx="5" fill="#007bff" />
        <circle cx="25" cy="40" r="10" fill="#2d3436" />
        <circle cx="75" cy="40" r="10" fill="#2d3436" />
        <rect x="20" y="10" width="60" height="20" rx="3" fill="#0056b3" />
    </g>

    <!-- Floating Elements -->
    <g transform="translate(400, 300)">
        <!-- Clock -->
        <circle cx="0" cy="0" r="30" fill="#007bff" opacity="0.1" />
        <path d="M0,-20 L0,0 M0,0 L15,0" stroke="#007bff" stroke-width="3" />
        
        <!-- Checkmark -->
        <path d="M50,0 L70,20 L90,-20" stroke="#28a745" stroke-width="4" fill="none" />
        
        <!-- Shield -->
        <path d="M-50,0 L-30,20 L-30,40 L-70,40 L-70,20 Z" fill="#dc3545" opacity="0.1" />
    </g>

    <!-- Decorative Elements -->
    <g transform="translate(100, 200)">
        <circle cx="0" cy="0" r="20" fill="#007bff" opacity="0.1" />
        <circle cx="40" cy="20" r="15" fill="#28a745" opacity="0.1" />
        <circle cx="80" cy="0" r="25" fill="#dc3545" opacity="0.1" />
    </g>
</svg> 