<?xml version="1.0" encoding="UTF-8"?>
<svg width="800" height="600" viewBox="0 0 800 600" xmlns="http://www.w3.org/2000/svg">
    <!-- Background -->
    <defs>
        <linearGradient id="bgGradient" x1="0%" y1="0%" x2="100%" y2="100%">
            <stop offset="0%" style="stop-color:#f8f9fa;stop-opacity:1" />
            <stop offset="100%" style="stop-color:#e9ecef;stop-opacity:1" />
        </linearGradient>
        <filter id="shadow" x="-20%" y="-20%" width="140%" height="140%">
            <feGaussianBlur in="SourceAlpha" stdDeviation="10" />
            <feOffset dx="0" dy="5" result="offsetblur" />
            <feComponentTransfer>
                <feFuncA type="linear" slope="0.2" />
            </feComponentTransfer>
            <feMerge>
                <feMergeNode />
                <feMergeNode in="SourceGraphic" />
            </feMerge>
        </filter>
    </defs>

    <!-- Main Container -->
    <rect x="50" y="50" width="700" height="500" rx="20" fill="url(#bgGradient)" filter="url(#shadow)" />

    <!-- Staff Members -->
    <g transform="translate(200, 150)">
        <rect x="0" y="0" width="400" height="300" rx="15" fill="white" />
        
        <!-- Driver -->
        <g transform="translate(100, 100)">
            <circle cx="0" cy="0" r="40" fill="#007bff" />
            <path d="M-20,40 L20,40 L0,80 Z" fill="#007bff" />
            <circle cx="-10" cy="-10" r="5" fill="white" />
            <circle cx="10" cy="-10" r="5" fill="white" />
            <path d="M-5,5 Q0,10 5,5" stroke="white" stroke-width="2" fill="none" />
        </g>
        
        <!-- Support Staff -->
        <g transform="translate(200, 100)">
            <circle cx="0" cy="0" r="40" fill="#28a745" />
            <path d="M-20,40 L20,40 L0,80 Z" fill="#28a745" />
            <circle cx="-10" cy="-10" r="5" fill="white" />
            <circle cx="10" cy="-10" r="5" fill="white" />
            <path d="M-5,5 Q0,10 5,5" stroke="white" stroke-width="2" fill="none" />
        </g>
        
        <!-- Manager -->
        <g transform="translate(300, 100)">
            <circle cx="0" cy="0" r="40" fill="#dc3545" />
            <path d="M-20,40 L20,40 L0,80 Z" fill="#dc3545" />
            <circle cx="-10" cy="-10" r="5" fill="white" />
            <circle cx="10" cy="-10" r="5" fill="white" />
            <path d="M-5,5 Q0,10 5,5" stroke="white" stroke-width="2" fill="none" />
        </g>
    </g>

    <!-- Professional Icons -->
    <g transform="translate(100, 400)">
        <!-- Headset -->
        <path d="M0,0 L40,0 L40,20 L0,20 Z" fill="#007bff" />
        <circle cx="20" cy="0" r="20" fill="#007bff" />
        
        <!-- Certificate -->
        <rect x="100" y="0" width="80" height="60" rx="5" fill="#28a745" />
        <path d="M120,20 L140,40 L160,20" stroke="white" stroke-width="3" fill="none" />
        
        <!-- Star -->
        <path d="M200,30 L220,0 L240,30 L270,30 L240,50 L260,80 L220,60 L180,80 L200,50 L170,30 Z" fill="#ffc107" />
    </g>

    <!-- Floating Elements -->
    <g transform="translate(400, 300)">
        <!-- Shield -->
        <path d="M-50,0 L-30,20 L-30,40 L-70,40 L-70,20 Z" fill="#dc3545" opacity="0.1" />
        
        <!-- Checkmark -->
        <path d="M50,0 L70,20 L90,-20" stroke="#28a745" stroke-width="4" fill="none" />
        
        <!-- Clock -->
        <circle cx="0" cy="0" r="30" fill="#007bff" opacity="0.1" />
        <path d="M0,-20 L0,0 M0,0 L15,0" stroke="#007bff" stroke-width="3" />
    </g>

    <!-- Decorative Elements -->
    <g transform="translate(100, 200)">
        <circle cx="0" cy="0" r="20" fill="#007bff" opacity="0.1" />
        <circle cx="40" cy="20" r="15" fill="#28a745" opacity="0.1" />
        <circle cx="80" cy="0" r="25" fill="#dc3545" opacity="0.1" />
    </g>
</svg> 